<svg id="Layer_1" data-name="Layer 1" xmlns="http://www.w3.org/2000/svg" viewBox="0 0 1152.19 768"><defs><style>.cls-1{fill:#1a1a1a;}.cls-2{fill:#fff;}</style></defs><line class="cls-1" x1="860.04" y1="418.77" x2="859.61" y2="420.19"/><path class="cls-1" d="M864.14,500a33.28,33.28,0,0,1-13.3,5.72,104.23,104.23,0,0,1-17.37,1.82,82.26,82.26,0,1,1,40.75-153.73A6.54,6.54,0,0,1,875,364.6l-8.61,6.73-7.64,6L843.88,388.9a12.43,12.43,0,0,1-7,2.63l-5.83.32-.93,0h0l-24,1.29-.42,0a6.16,6.16,0,0,0-3.84,1.55,6.31,6.31,0,0,0,4.51,11.05l.58,0h0l5.84-.33-10,7.81v0l-4.24,3.32-7.48,5.86,0,0-.09.06-3.26,2.55,0,0a6.3,6.3,0,1,0,7.76,9.93l11-8.53.51.64v0l-14,11a6.31,6.31,0,1,0,7.76,9.94l14.07-11,.54.66-12.14,9.57a6.31,6.31,0,1,0,7.76,9.94l12.19-9.53.5.65L816,454.35a6.32,6.32,0,0,0,.61,10.39,6.43,6.43,0,0,0,6.11.23c.49-.27,1.06-.67,1.06-.67l29.37-23,7.05-23.11a6.07,6.07,0,0,1,2.41-3.33,6.41,6.41,0,0,1,1.72-.85,5.9,5.9,0,0,1,2.12-.28h0a4.23,4.23,0,0,1,1.16.17,6.11,6.11,0,0,1,3.78,2.52,6.26,6.26,0,0,1,.83,5.47h0l-1.73,5.73,33.37-26.08a6.15,6.15,0,0,1,3.89-1.35,6.31,6.31,0,0,1,4.65,2v0a6.14,6.14,0,0,1,1.65,4.24,5.41,5.41,0,0,1-.18,1.52v0a6.07,6.07,0,0,1-2.25,3.4l0,0-12.31,9.61.53.68.66-.51a6,6,0,0,1,3.85-1.37,6.39,6.39,0,0,1,6.23,5.13,6.26,6.26,0,0,1-2.34,6.14l-.65.53.56.71.53-.41a6.14,6.14,0,0,1,3.89-1.38,6.31,6.31,0,0,1,6.32,6.31,6.18,6.18,0,0,1-2.47,5l-.53.42.58.73.39-.31a6,6,0,0,1,4.29-1.36,6.37,6.37,0,0,1,5.82,5.15,6.2,6.2,0,0,1-2.32,6.11Z"/><polygon class="cls-1" points="790.22 428.09 790.34 428 790.3 428.04 790.22 428.09"/><path class="cls-1" d="M395.75,262.55a6.8,6.8,0,0,0-5-2.05H346.29a7,7,0,0,0-7.07,7.1v75.74H283.63V267.6a7,7,0,0,0-7.09-7.1H232.12a7,7,0,0,0-4.9,2.05A6.59,6.59,0,0,0,225,267.6V497.06a6.48,6.48,0,0,0,2.19,5.18,7.21,7.21,0,0,0,4.9,1.91h44.42a7,7,0,0,0,7.09-7.09V394.54h55.59V497.06a7,7,0,0,0,7.07,7.09h44.42a7,7,0,0,0,7.09-7.09V267.6A6.79,6.79,0,0,0,395.75,262.55Z"/><path class="cls-1" d="M739.49,429.79a77.71,77.71,0,0,1-155.41,0c0-.64,0-1.26,0-1.89v-.12c0-.82,0-1.66,0-2.49V350.55a8.11,8.11,0,0,1,.13-1.44,6.41,6.41,0,0,1,.39-1.36,7,7,0,0,1,1.58-2.32,6.56,6.56,0,0,1,2.75-1.69,8.41,8.41,0,0,1,1-.28,8.7,8.7,0,0,1,1.36-.12H635.2a7.25,7.25,0,0,1,2.81.52c.22.09.42.2.64.3a6.8,6.8,0,0,1,1.7,1.27h0a6.92,6.92,0,0,1,2.1,5.12v72.79a43.3,43.3,0,0,0,.26,4.85c0,.05,0,.13,0,.18q2,15.66,17.4,16.34c.5,0,1,0,1.48,0h.24c.52,0,1,0,1.48,0s1.06-.13,1.61-.18a17.4,17.4,0,0,0,11-5.34,19.71,19.71,0,0,0,4.81-10.82.55.55,0,0,1,0-.18,33.92,33.92,0,0,0,.33-4.85V350.55a7,7,0,0,1,2.06-5.12,6.19,6.19,0,0,1,1.7-1.27c.22-.1.42-.21.63-.3a7.33,7.33,0,0,1,2.79-.52h43.91a8.93,8.93,0,0,1,1.41.12,4.86,4.86,0,0,1,1,.28,7.82,7.82,0,0,1,2.65,1.69,7,7,0,0,1,1.67,2.32,7.88,7.88,0,0,1,.4,1.36,5.29,5.29,0,0,1,.09.71c0,.21,0,.46,0,.73v74.74c0,.58,0,1.16,0,1.74Q739.49,428.41,739.49,429.79Z"/><path class="cls-1" d="M568.92,429.79a77.71,77.71,0,0,1-155.41,0c0-.64,0-1.26,0-1.89v-.12c0-.82,0-1.66,0-2.49V350.55a8.11,8.11,0,0,1,.13-1.44,6.66,6.66,0,0,1,2-3.68,6.59,6.59,0,0,1,2.76-1.69,7.42,7.42,0,0,1,1-.28,8.68,8.68,0,0,1,1.35-.12h43.95a7.17,7.17,0,0,1,2.8.52c.23.09.42.2.65.3a6.75,6.75,0,0,1,1.69,1.27h0a6.89,6.89,0,0,1,2.1,5.12v72.79a41,41,0,0,0,.27,4.85c0,.05,0,.13,0,.18q2,15.66,17.39,16.34c.5,0,1,0,1.48,0h.25c.52,0,1,0,1.48,0s1.06-.13,1.6-.18a17.46,17.46,0,0,0,11-5.34,19.7,19.7,0,0,0,4.8-10.82.55.55,0,0,1,0-.18,32.52,32.52,0,0,0,.33-4.85V350.55a7,7,0,0,1,2.06-5.12,6.19,6.19,0,0,1,1.7-1.27c.22-.1.42-.21.64-.3a7.24,7.24,0,0,1,2.78-.52h43.91a8.93,8.93,0,0,1,1.41.12,4.69,4.69,0,0,1,1,.28,7.82,7.82,0,0,1,2.65,1.69,7.21,7.21,0,0,1,1.68,2.32,10.16,10.16,0,0,1,.4,1.36,5.29,5.29,0,0,1,.09.71c0,.21,0,.46,0,.73v74.74c0,.58,0,1.16,0,1.74C568.9,428,568.92,428.87,568.92,429.79Z"/><polygon class="cls-2" points="787.31 428.1 787.43 428.01 787.39 428.05 787.31 428.1"/></svg>