<svg id="Layer_1" data-name="Layer 1" xmlns="http://www.w3.org/2000/svg" viewBox="0 0 1614.89 768"><defs><style>.cls-1{fill:#fff;}</style></defs><line class="cls-1" x1="956.13" y1="407.07" x2="955.7" y2="408.49"/><path class="cls-1" d="M960.23,488.25a33.21,33.21,0,0,1-13.3,5.72,103.29,103.29,0,0,1-17.37,1.82,82.26,82.26,0,1,1,40.75-153.73,6.54,6.54,0,0,1,.76,10.83l-8.61,6.73-7.64,6L940,377.19a12.43,12.43,0,0,1-7,2.63l-5.83.32-.93,0h0l-24,1.29-.42,0a6.16,6.16,0,0,0-3.84,1.55,6.31,6.31,0,0,0,4.51,11.05l.58,0h0l5.84-.33-10,7.81v0l-4.24,3.32-7.48,5.86,0,0-.09.06-3.26,2.55,0,0a6.3,6.3,0,1,0,7.76,9.93l10.95-8.53.51.64v0l-14,11a6.31,6.31,0,1,0,7.76,9.94l14.07-11,.54.66-12.14,9.57A6.31,6.31,0,1,0,907,445.6l12.19-9.53.5.65-7.57,5.92a6.32,6.32,0,0,0,.61,10.39,6.43,6.43,0,0,0,6.11.23,11.12,11.12,0,0,0,1.06-.67l29.37-23,7.05-23.11a6.07,6.07,0,0,1,2.41-3.33,6.41,6.41,0,0,1,1.72-.85,5.9,5.9,0,0,1,2.12-.28h0a4.23,4.23,0,0,1,1.16.17,6.11,6.11,0,0,1,3.78,2.52,6.26,6.26,0,0,1,.83,5.47h0l-1.73,5.73L1000,389.82a6.15,6.15,0,0,1,3.89-1.35,6.31,6.31,0,0,1,4.65,2v0a6.14,6.14,0,0,1,1.65,4.24,5.41,5.41,0,0,1-.18,1.52v0a6.07,6.07,0,0,1-2.25,3.4l0,0-12.31,9.61.53.68.66-.51a6,6,0,0,1,3.85-1.37,6.39,6.39,0,0,1,6.23,5.13,6.26,6.26,0,0,1-2.34,6.14l-.65.53.56.71.53-.41a6.17,6.17,0,0,1,3.89-1.38,6.31,6.31,0,0,1,6.32,6.31,6.18,6.18,0,0,1-2.47,5l-.54.43.58.73.4-.32a6,6,0,0,1,4.29-1.36,6.37,6.37,0,0,1,5.82,5.15,6.21,6.21,0,0,1-2.33,6.11Z"/><polygon class="cls-1" points="886.31 416.39 886.43 416.3 886.39 416.34 886.31 416.39"/><path class="cls-1" d="M491.84,250.85a6.82,6.82,0,0,0-5-2H442.37a7,7,0,0,0-7.07,7.09v75.75H379.71V255.89a7,7,0,0,0-7.09-7.09H328.2a7,7,0,0,0-4.9,2,6.56,6.56,0,0,0-2.19,5V485.35a6.49,6.49,0,0,0,2.19,5.19,7.21,7.21,0,0,0,4.9,1.91h44.42a7,7,0,0,0,7.09-7.1V382.84H435.3V485.35a7,7,0,0,0,7.07,7.1h44.42a7,7,0,0,0,7.1-7.1V255.89A6.8,6.8,0,0,0,491.84,250.85Z"/><path class="cls-1" d="M835.57,418.08a77.71,77.71,0,1,1-155.41,0c0-.63,0-1.25,0-1.88v-.13c0-.81,0-1.65,0-2.49V338.85a8.32,8.32,0,0,1,.13-1.45,6.69,6.69,0,0,1,2-3.67A6.39,6.39,0,0,1,685,332a5.26,5.26,0,0,1,1-.28,8.68,8.68,0,0,1,1.35-.12h43.95a7.17,7.17,0,0,1,2.8.52c.23.09.42.19.65.29a7,7,0,0,1,1.69,1.28h0a6.89,6.89,0,0,1,2.1,5.12v72.79a41,41,0,0,0,.27,4.85s0,.12,0,.18q2,15.65,17.39,16.34c.5,0,1,0,1.48,0H758c.52,0,1,0,1.48,0s1.06-.13,1.6-.18a17.5,17.5,0,0,0,11-5.34,19.74,19.74,0,0,0,4.8-10.82.5.5,0,0,1,0-.18,32.52,32.52,0,0,0,.33-4.85V338.85a7,7,0,0,1,2.06-5.12,6.44,6.44,0,0,1,1.7-1.28l.64-.29a7.24,7.24,0,0,1,2.78-.52h43.91a8.93,8.93,0,0,1,1.41.12,4.16,4.16,0,0,1,1,.28,7.65,7.65,0,0,1,2.66,1.69,7.22,7.22,0,0,1,1.67,2.32,10,10,0,0,1,.4,1.35,5.67,5.67,0,0,1,.09.72c0,.21,0,.46,0,.73v74.73c0,.59,0,1.17,0,1.75C835.55,416.25,835.57,417.17,835.57,418.08Z"/><path class="cls-1" d="M665,418.08a77.7,77.7,0,1,1-155.4,0c0-.63,0-1.25,0-1.88v-.13c0-.81,0-1.65,0-2.49V338.85a8.29,8.29,0,0,1,.14-1.45,5.79,5.79,0,0,1,.39-1.35,6.66,6.66,0,0,1,1.58-2.32,6.3,6.3,0,0,1,2.75-1.69,5.49,5.49,0,0,1,1-.28,8.7,8.7,0,0,1,1.36-.12h43.94a7.25,7.25,0,0,1,2.81.52l.64.29a7,7,0,0,1,1.69,1.28h0a6.9,6.9,0,0,1,2.11,5.12v72.79a43.3,43.3,0,0,0,.26,4.85s0,.12,0,.18q2,15.65,17.4,16.34c.5,0,1,0,1.48,0h.24c.52,0,1,0,1.48,0s1.06-.13,1.6-.18a17.48,17.48,0,0,0,11-5.34,19.82,19.82,0,0,0,4.81-10.82.5.5,0,0,1,0-.18,34,34,0,0,0,.32-4.85V338.85a7,7,0,0,1,2.06-5.12,6.49,6.49,0,0,1,1.71-1.28l.63-.29a7.33,7.33,0,0,1,2.79-.52h43.91a8.93,8.93,0,0,1,1.41.12,4.44,4.44,0,0,1,1,.28,7.71,7.71,0,0,1,2.65,1.69,7.22,7.22,0,0,1,1.67,2.32,7.77,7.77,0,0,1,.4,1.35,5.67,5.67,0,0,1,.09.72c0,.21,0,.46,0,.73v74.73c0,.59,0,1.17,0,1.75C665,416.25,665,417.17,665,418.08Z"/><polygon class="cls-1" points="883.39 416.4 883.51 416.31 883.47 416.35 883.39 416.4"/><path class="cls-1" d="M1066.18,492a2.86,2.86,0,0,1-2.1-.87,2.82,2.82,0,0,1-.86-2.1V407.3a2.85,2.85,0,0,1,.86-2.1,2.89,2.89,0,0,1,2.1-.86h10.25a2.89,2.89,0,0,1,2.1.86,2.86,2.86,0,0,1,.87,2.1v81.76a2.83,2.83,0,0,1-.87,2.1,2.86,2.86,0,0,1-2.1.87Z"/><path class="cls-1" d="M1092.12,417.18a2.77,2.77,0,0,1-3-3v-8.9a3,3,0,0,1,.81-2.1,2.81,2.81,0,0,1,2.16-.86h11.24a3,3,0,0,1,2.22.86,2.89,2.89,0,0,1,.86,2.1v8.9a2.84,2.84,0,0,1-.86,2.16,3.17,3.17,0,0,1-2.22.8Zm.49,74.85a3,3,0,0,1-3-3V430.77a3,3,0,0,1,3-3h10.25a2.78,2.78,0,0,1,2.16.87,3,3,0,0,1,.81,2.1v58.29a2.94,2.94,0,0,1-.81,2.1,2.78,2.78,0,0,1-2.16.87Z"/><path class="cls-1" d="M1145.1,519.2q-9,0-14.82-2.35a27.09,27.09,0,0,1-9.14-5.68,21.82,21.82,0,0,1-4.75-6.61,16.77,16.77,0,0,1-1.55-5.12,2.58,2.58,0,0,1,.8-2.16,3,3,0,0,1,2.17-.93h10.74a3.19,3.19,0,0,1,2,.56,4.11,4.11,0,0,1,1.23,2,25.55,25.55,0,0,0,2,3.46,9.59,9.59,0,0,0,3.77,3.15,15.38,15.38,0,0,0,7,1.3,20.44,20.44,0,0,0,7.91-1.36,9.64,9.64,0,0,0,4.88-4.57c1.11-2.14,1.66-5.11,1.66-8.89v-8.4a21.93,21.93,0,0,1-7.59,5.8,26.2,26.2,0,0,1-11.43,2.23,27.73,27.73,0,0,1-11.48-2.17,21.75,21.75,0,0,1-8-6.05,26.92,26.92,0,0,1-4.88-9.2,44.7,44.7,0,0,1-1.91-11.73q-.13-3.35,0-6.67a45.73,45.73,0,0,1,1.85-11.49,26.68,26.68,0,0,1,4.88-9.32,22.33,22.33,0,0,1,8.09-6.24,27.24,27.24,0,0,1,11.48-2.22,24.27,24.27,0,0,1,11.86,2.65,25.6,25.6,0,0,1,7.91,6.61v-4.94a3,3,0,0,1,.86-2.22,2.85,2.85,0,0,1,2.1-.87h10a2.83,2.83,0,0,1,2.1.87,3,3,0,0,1,.87,2.22l.12,59.53a32.92,32.92,0,0,1-3.33,15.32,23.09,23.09,0,0,1-10.07,9.94Q1155.59,519.2,1145.1,519.2Zm-.62-40.64a13.69,13.69,0,0,0,8.16-2.22,13.19,13.19,0,0,0,4.56-5.8,22.8,22.8,0,0,0,1.73-7.29c.09-1.07.13-2.43.13-4.08s0-3-.13-3.95a22.42,22.42,0,0,0-1.73-7.35,13.71,13.71,0,0,0-4.56-5.8,15.67,15.67,0,0,0-16.31,0,12.29,12.29,0,0,0-4.38,6,29.56,29.56,0,0,0-1.55,8.15,38.18,38.18,0,0,0,0,6.05,30,30,0,0,0,1.55,8.09,11.94,11.94,0,0,0,4.38,6A13.68,13.68,0,0,0,1144.48,478.56Z"/><path class="cls-1" d="M1189.07,492a2.86,2.86,0,0,1-2.1-.87,2.82,2.82,0,0,1-.86-2.1V407.3a2.85,2.85,0,0,1,.86-2.1,2.89,2.89,0,0,1,2.1-.86h11a2.81,2.81,0,0,1,2.16.86,3,3,0,0,1,.81,2.1v28.16a26.21,26.21,0,0,1,8.15-6.42,25.72,25.72,0,0,1,11.85-2.47,25,25,0,0,1,13.16,3.39,22.93,22.93,0,0,1,8.71,9.58,32.9,32.9,0,0,1,3.08,14.82v34.7a3,3,0,0,1-3,3H1233.9a3,3,0,0,1-3-3v-34q0-7.17-3.52-11.24t-10.19-4.08a13.58,13.58,0,0,0-10.31,4.08q-3.9,4.08-3.89,11.24v34a2.94,2.94,0,0,1-.81,2.1,2.78,2.78,0,0,1-2.16.87Z"/><path class="cls-1" d="M1258.33,427.8V407.3a3,3,0,0,1,.81-2.1,2.81,2.81,0,0,1,2.16-.86h10a2.89,2.89,0,0,1,2.1.86,2.86,2.86,0,0,1,.87,2.1v20.5h15.43a3,3,0,0,1,3,3v7.16a2.86,2.86,0,0,1-.87,2.1,2.82,2.82,0,0,1-2.1.86h-15.43V467.7c0,3.37.59,6,1.79,7.9s3.27,2.84,6.23,2.84h8.53a3,3,0,0,1,3,3v7.66a3,3,0,0,1-3,3h-10a27.11,27.11,0,0,1-12.47-2.6,16.5,16.5,0,0,1-7.54-7.72,29.41,29.41,0,0,1-2.47-12.78v-28"/></svg>